<svg width="432px" height="673px" viewBox="0 0 432 673" preserveAspectRatio="xMinYMin meet" xmlns="http://www.w3.org/2000/svg" xmlns:xlink="http://www.w3.org/1999/xlink" version="1.1"><style type="text/css"><![CDATA[@import url("https://fonts.googleapis.com/css2?family=Kosugi+Maru&display=swap");]]></style><defs><filter id="receiptlineinvert" x="0" y="0" width="100%" height="100%"><feFlood flood-color="#000"/><feComposite in="SourceGraphic" operator="xor"/></filter></defs><g font-family="'Kosugi Maru', 'MS Gothic', 'San Francisco', 'Osaka-Mono', monospace" fill="#000" font-size="24" dominant-baseline="text-after-edge" text-anchor="middle" xml:lang="ja"><g transform="translate(0,24)"><text><tspan x="6">&#xa0;</tspan></text></g><g transform="translate(0,48)"><text><tspan x="108">2</tspan><tspan x="120">0</tspan><tspan x="132">2</tspan><tspan x="144">2</tspan><tspan x="162">年</tspan><tspan x="180">2</tspan><tspan x="198">月</tspan><tspan x="216">2</tspan><tspan x="228">5</tspan><tspan x="246">日</tspan><tspan x="264">&#xa0;</tspan><tspan x="276">1</tspan><tspan x="288">2</tspan><tspan x="300">:</tspan><tspan x="312">2</tspan><tspan x="324">0</tspan></text></g><g transform="translate(0,72)"><text><tspan x="6">&#xa0;</tspan></text></g><g transform="translate(0,96)"><text><tspan x="6">&#xa0;</tspan></text></g><g transform="translate(0,144)"><text transform="scale(2,2)"><tspan x="72">受</tspan><tspan x="96">付</tspan><tspan x="120">番</tspan><tspan x="144">号</tspan></text></g><g transform="translate(0,288)"><text transform="scale(6,6)"><tspan x="36">6</tspan></text></g><g transform="translate(0,312)"><text><tspan x="6">&#xa0;</tspan></text></g><g transform="translate(0,336)"><text><tspan x="6">&#xa0;</tspan></text></g><g transform="translate(0,360)"><text><tspan x="60">ス</tspan><tspan x="84">マ</tspan><tspan x="108">ー</tspan><tspan x="132">ト</tspan><tspan x="156">フ</tspan><tspan x="180">ォ</tspan><tspan x="204">ン</tspan><tspan x="228">か</tspan><tspan x="252">ら</tspan><tspan x="270">Q</tspan><tspan x="282">R</tspan><tspan x="300">コ</tspan><tspan x="324">ー</tspan><tspan x="348">ド</tspan><tspan x="372">を</tspan></text></g><g transform="translate(0,384)"><text><tspan x="66">読</tspan><tspan x="90">み</tspan><tspan x="114">込</tspan><tspan x="138">む</tspan><tspan x="162">と</tspan><tspan x="186">、</tspan><tspan x="210">予</tspan><tspan x="234">約</tspan><tspan x="258">状</tspan><tspan x="282">況</tspan><tspan x="306">を</tspan><tspan x="324">W</tspan><tspan x="336">e</tspan><tspan x="348">b</tspan><tspan x="366">で</tspan></text></g><g transform="translate(0,408)"><text><tspan x="144">確</tspan><tspan x="168">認</tspan><tspan x="192">で</tspan><tspan x="216">き</tspan><tspan x="240">ま</tspan><tspan x="264">す</tspan><tspan x="288">。</tspan></text></g><g transform="translate(0,432)"><text><tspan x="6">&#xa0;</tspan></text></g><g transform="translate(0,456)"><text><tspan x="6">&#xa0;</tspan></text></g><g transform="translate(143.5,456)"><path d="M0,0l5,0 0,5 -5,0 0,-5z M5,0l5,0 0,5 -5,0 0,-5z M10,0l5,0 0,5 -5,0 0,-5z M15,0l5,0 0,5 -5,0 0,-5z M20,0l5,0 0,5 -5,0 0,-5z M25,0l5,0 0,5 -5,0 0,-5z M30,0l5,0 0,5 -5,0 0,-5z M40,0l5,0 0,5 -5,0 0,-5z M45,0l5,0 0,5 -5,0 0,-5z M80,0l5,0 0,5 -5,0 0,-5z M95,0l5,0 0,5 -5,0 0,-5z M100,0l5,0 0,5 -5,0 0,-5z M110,0l5,0 0,5 -5,0 0,-5z M115,0l5,0 0,5 -5,0 0,-5z M120,0l5,0 0,5 -5,0 0,-5z M125,0l5,0 0,5 -5,0 0,-5z M130,0l5,0 0,5 -5,0 0,-5z M135,0l5,0 0,5 -5,0 0,-5z M140,0l5,0 0,5 -5,0 0,-5z M0,5l5,0 0,5 -5,0 0,-5z M30,5l5,0 0,5 -5,0 0,-5z M85,5l5,0 0,5 -5,0 0,-5z M90,5l5,0 0,5 -5,0 0,-5z M110,5l5,0 0,5 -5,0 0,-5z M140,5l5,0 0,5 -5,0 0,-5z M0,10l5,0 0,5 -5,0 0,-5z M10,10l5,0 0,5 -5,0 0,-5z M15,10l5,0 0,5 -5,0 0,-5z M20,10l5,0 0,5 -5,0 0,-5z M30,10l5,0 0,5 -5,0 0,-5z M40,10l5,0 0,5 -5,0 0,-5z M55,10l5,0 0,5 -5,0 0,-5z M60,10l5,0 0,5 -5,0 0,-5z M65,10l5,0 0,5 -5,0 0,-5z M70,10l5,0 0,5 -5,0 0,-5z M75,10l5,0 0,5 -5,0 0,-5z M95,10l5,0 0,5 -5,0 0,-5z M110,10l5,0 0,5 -5,0 0,-5z M120,10l5,0 0,5 -5,0 0,-5z M125,10l5,0 0,5 -5,0 0,-5z M130,10l5,0 0,5 -5,0 0,-5z M140,10l5,0 0,5 -5,0 0,-5z M0,15l5,0 0,5 -5,0 0,-5z M10,15l5,0 0,5 -5,0 0,-5z M15,15l5,0 0,5 -5,0 0,-5z M20,15l5,0 0,5 -5,0 0,-5z M30,15l5,0 0,5 -5,0 0,-5z M40,15l5,0 0,5 -5,0 0,-5z M45,15l5,0 0,5 -5,0 0,-5z M55,15l5,0 0,5 -5,0 0,-5z M65,15l5,0 0,5 -5,0 0,-5z M70,15l5,0 0,5 -5,0 0,-5z M85,15l5,0 0,5 -5,0 0,-5z M95,15l5,0 0,5 -5,0 0,-5z M110,15l5,0 0,5 -5,0 0,-5z M120,15l5,0 0,5 -5,0 0,-5z M125,15l5,0 0,5 -5,0 0,-5z M130,15l5,0 0,5 -5,0 0,-5z M140,15l5,0 0,5 -5,0 0,-5z M0,20l5,0 0,5 -5,0 0,-5z M10,20l5,0 0,5 -5,0 0,-5z M15,20l5,0 0,5 -5,0 0,-5z M20,20l5,0 0,5 -5,0 0,-5z M30,20l5,0 0,5 -5,0 0,-5z M40,20l5,0 0,5 -5,0 0,-5z M45,20l5,0 0,5 -5,0 0,-5z M50,20l5,0 0,5 -5,0 0,-5z M55,20l5,0 0,5 -5,0 0,-5z M75,20l5,0 0,5 -5,0 0,-5z M80,20l5,0 0,5 -5,0 0,-5z M95,20l5,0 0,5 -5,0 0,-5z M110,20l5,0 0,5 -5,0 0,-5z M120,20l5,0 0,5 -5,0 0,-5z M125,20l5,0 0,5 -5,0 0,-5z M130,20l5,0 0,5 -5,0 0,-5z M140,20l5,0 0,5 -5,0 0,-5z M0,25l5,0 0,5 -5,0 0,-5z M30,25l5,0 0,5 -5,0 0,-5z M45,25l5,0 0,5 -5,0 0,-5z M60,25l5,0 0,5 -5,0 0,-5z M95,25l5,0 0,5 -5,0 0,-5z M100,25l5,0 0,5 -5,0 0,-5z M110,25l5,0 0,5 -5,0 0,-5z M140,25l5,0 0,5 -5,0 0,-5z M0,30l5,0 0,5 -5,0 0,-5z M5,30l5,0 0,5 -5,0 0,-5z M10,30l5,0 0,5 -5,0 0,-5z M15,30l5,0 0,5 -5,0 0,-5z M20,30l5,0 0,5 -5,0 0,-5z M25,30l5,0 0,5 -5,0 0,-5z M30,30l5,0 0,5 -5,0 0,-5z M40,30l5,0 0,5 -5,0 0,-5z M50,30l5,0 0,5 -5,0 0,-5z M60,30l5,0 0,5 -5,0 0,-5z M70,30l5,0 0,5 -5,0 0,-5z M80,30l5,0 0,5 -5,0 0,-5z M90,30l5,0 0,5 -5,0 0,-5z M100,30l5,0 0,5 -5,0 0,-5z M110,30l5,0 0,5 -5,0 0,-5z M115,30l5,0 0,5 -5,0 0,-5z M120,30l5,0 0,5 -5,0 0,-5z M125,30l5,0 0,5 -5,0 0,-5z M130,30l5,0 0,5 -5,0 0,-5z M135,30l5,0 0,5 -5,0 0,-5z M140,30l5,0 0,5 -5,0 0,-5z M45,35l5,0 0,5 -5,0 0,-5z M55,35l5,0 0,5 -5,0 0,-5z M70,35l5,0 0,5 -5,0 0,-5z M75,35l5,0 0,5 -5,0 0,-5z M80,35l5,0 0,5 -5,0 0,-5z M85,35l5,0 0,5 -5,0 0,-5z M95,35l5,0 0,5 -5,0 0,-5z M0,40l5,0 0,5 -5,0 0,-5z M5,40l5,0 0,5 -5,0 0,-5z M10,40l5,0 0,5 -5,0 0,-5z M15,40l5,0 0,5 -5,0 0,-5z M30,40l5,0 0,5 -5,0 0,-5z M40,40l5,0 0,5 -5,0 0,-5z M80,40l5,0 0,5 -5,0 0,-5z M85,40l5,0 0,5 -5,0 0,-5z M90,40l5,0 0,5 -5,0 0,-5z M95,40l5,0 0,5 -5,0 0,-5z M105,40l5,0 0,5 -5,0 0,-5z M120,40l5,0 0,5 -5,0 0,-5z M125,40l5,0 0,5 -5,0 0,-5z M130,40l5,0 0,5 -5,0 0,-5z M140,40l5,0 0,5 -5,0 0,-5z M5,45l5,0 0,5 -5,0 0,-5z M20,45l5,0 0,5 -5,0 0,-5z M40,45l5,0 0,5 -5,0 0,-5z M45,45l5,0 0,5 -5,0 0,-5z M65,45l5,0 0,5 -5,0 0,-5z M80,45l5,0 0,5 -5,0 0,-5z M95,45l5,0 0,5 -5,0 0,-5z M100,45l5,0 0,5 -5,0 0,-5z M105,45l5,0 0,5 -5,0 0,-5z M110,45l5,0 0,5 -5,0 0,-5z M115,45l5,0 0,5 -5,0 0,-5z M120,45l5,0 0,5 -5,0 0,-5z M140,45l5,0 0,5 -5,0 0,-5z M10,50l5,0 0,5 -5,0 0,-5z M15,50l5,0 0,5 -5,0 0,-5z M25,50l5,0 0,5 -5,0 0,-5z M30,50l5,0 0,5 -5,0 0,-5z M65,50l5,0 0,5 -5,0 0,-5z M80,50l5,0 0,5 -5,0 0,-5z M85,50l5,0 0,5 -5,0 0,-5z M90,50l5,0 0,5 -5,0 0,-5z M100,50l5,0 0,5 -5,0 0,-5z M110,50l5,0 0,5 -5,0 0,-5z M130,50l5,0 0,5 -5,0 0,-5z M135,50l5,0 0,5 -5,0 0,-5z M5,55l5,0 0,5 -5,0 0,-5z M20,55l5,0 0,5 -5,0 0,-5z M55,55l5,0 0,5 -5,0 0,-5z M60,55l5,0 0,5 -5,0 0,-5z M65,55l5,0 0,5 -5,0 0,-5z M70,55l5,0 0,5 -5,0 0,-5z M80,55l5,0 0,5 -5,0 0,-5z M90,55l5,0 0,5 -5,0 0,-5z M100,55l5,0 0,5 -5,0 0,-5z M105,55l5,0 0,5 -5,0 0,-5z M110,55l5,0 0,5 -5,0 0,-5z M115,55l5,0 0,5 -5,0 0,-5z M140,55l5,0 0,5 -5,0 0,-5z M0,60l5,0 0,5 -5,0 0,-5z M5,60l5,0 0,5 -5,0 0,-5z M15,60l5,0 0,5 -5,0 0,-5z M20,60l5,0 0,5 -5,0 0,-5z M25,60l5,0 0,5 -5,0 0,-5z M30,60l5,0 0,5 -5,0 0,-5z M40,60l5,0 0,5 -5,0 0,-5z M45,60l5,0 0,5 -5,0 0,-5z M55,60l5,0 0,5 -5,0 0,-5z M85,60l5,0 0,5 -5,0 0,-5z M95,60l5,0 0,5 -5,0 0,-5z M125,60l5,0 0,5 -5,0 0,-5z M130,60l5,0 0,5 -5,0 0,-5z M0,65l5,0 0,5 -5,0 0,-5z M10,65l5,0 0,5 -5,0 0,-5z M15,65l5,0 0,5 -5,0 0,-5z M45,65l5,0 0,5 -5,0 0,-5z M50,65l5,0 0,5 -5,0 0,-5z M55,65l5,0 0,5 -5,0 0,-5z M65,65l5,0 0,5 -5,0 0,-5z M70,65l5,0 0,5 -5,0 0,-5z M75,65l5,0 0,5 -5,0 0,-5z M80,65l5,0 0,5 -5,0 0,-5z M85,65l5,0 0,5 -5,0 0,-5z M95,65l5,0 0,5 -5,0 0,-5z M100,65l5,0 0,5 -5,0 0,-5z M105,65l5,0 0,5 -5,0 0,-5z M110,65l5,0 0,5 -5,0 0,-5z M130,65l5,0 0,5 -5,0 0,-5z M135,65l5,0 0,5 -5,0 0,-5z M140,65l5,0 0,5 -5,0 0,-5z M0,70l5,0 0,5 -5,0 0,-5z M5,70l5,0 0,5 -5,0 0,-5z M15,70l5,0 0,5 -5,0 0,-5z M20,70l5,0 0,5 -5,0 0,-5z M30,70l5,0 0,5 -5,0 0,-5z M50,70l5,0 0,5 -5,0 0,-5z M60,70l5,0 0,5 -5,0 0,-5z M70,70l5,0 0,5 -5,0 0,-5z M85,70l5,0 0,5 -5,0 0,-5z M95,70l5,0 0,5 -5,0 0,-5z M100,70l5,0 0,5 -5,0 0,-5z M110,70l5,0 0,5 -5,0 0,-5z M115,70l5,0 0,5 -5,0 0,-5z M120,70l5,0 0,5 -5,0 0,-5z M130,70l5,0 0,5 -5,0 0,-5z M135,70l5,0 0,5 -5,0 0,-5z M140,70l5,0 0,5 -5,0 0,-5z M5,75l5,0 0,5 -5,0 0,-5z M10,75l5,0 0,5 -5,0 0,-5z M15,75l5,0 0,5 -5,0 0,-5z M40,75l5,0 0,5 -5,0 0,-5z M45,75l5,0 0,5 -5,0 0,-5z M50,75l5,0 0,5 -5,0 0,-5z M60,75l5,0 0,5 -5,0 0,-5z M65,75l5,0 0,5 -5,0 0,-5z M90,75l5,0 0,5 -5,0 0,-5z M100,75l5,0 0,5 -5,0 0,-5z M105,75l5,0 0,5 -5,0 0,-5z M120,75l5,0 0,5 -5,0 0,-5z M135,75l5,0 0,5 -5,0 0,-5z M0,80l5,0 0,5 -5,0 0,-5z M5,80l5,0 0,5 -5,0 0,-5z M15,80l5,0 0,5 -5,0 0,-5z M30,80l5,0 0,5 -5,0 0,-5z M35,80l5,0 0,5 -5,0 0,-5z M40,80l5,0 0,5 -5,0 0,-5z M50,80l5,0 0,5 -5,0 0,-5z M55,80l5,0 0,5 -5,0 0,-5z M80,80l5,0 0,5 -5,0 0,-5z M100,80l5,0 0,5 -5,0 0,-5z M105,80l5,0 0,5 -5,0 0,-5z M115,80l5,0 0,5 -5,0 0,-5z M120,80l5,0 0,5 -5,0 0,-5z M125,80l5,0 0,5 -5,0 0,-5z M135,80l5,0 0,5 -5,0 0,-5z M5,85l5,0 0,5 -5,0 0,-5z M15,85l5,0 0,5 -5,0 0,-5z M35,85l5,0 0,5 -5,0 0,-5z M45,85l5,0 0,5 -5,0 0,-5z M50,85l5,0 0,5 -5,0 0,-5z M60,85l5,0 0,5 -5,0 0,-5z M65,85l5,0 0,5 -5,0 0,-5z M75,85l5,0 0,5 -5,0 0,-5z M85,85l5,0 0,5 -5,0 0,-5z M100,85l5,0 0,5 -5,0 0,-5z M105,85l5,0 0,5 -5,0 0,-5z M115,85l5,0 0,5 -5,0 0,-5z M125,85l5,0 0,5 -5,0 0,-5z M130,85l5,0 0,5 -5,0 0,-5z M135,85l5,0 0,5 -5,0 0,-5z M0,90l5,0 0,5 -5,0 0,-5z M15,90l5,0 0,5 -5,0 0,-5z M25,90l5,0 0,5 -5,0 0,-5z M30,90l5,0 0,5 -5,0 0,-5z M50,90l5,0 0,5 -5,0 0,-5z M55,90l5,0 0,5 -5,0 0,-5z M60,90l5,0 0,5 -5,0 0,-5z M75,90l5,0 0,5 -5,0 0,-5z M80,90l5,0 0,5 -5,0 0,-5z M85,90l5,0 0,5 -5,0 0,-5z M115,90l5,0 0,5 -5,0 0,-5z M120,90l5,0 0,5 -5,0 0,-5z M130,90l5,0 0,5 -5,0 0,-5z M10,95l5,0 0,5 -5,0 0,-5z M15,95l5,0 0,5 -5,0 0,-5z M20,95l5,0 0,5 -5,0 0,-5z M25,95l5,0 0,5 -5,0 0,-5z M60,95l5,0 0,5 -5,0 0,-5z M80,95l5,0 0,5 -5,0 0,-5z M85,95l5,0 0,5 -5,0 0,-5z M95,95l5,0 0,5 -5,0 0,-5z M130,95l5,0 0,5 -5,0 0,-5z M5,100l5,0 0,5 -5,0 0,-5z M10,100l5,0 0,5 -5,0 0,-5z M20,100l5,0 0,5 -5,0 0,-5z M30,100l5,0 0,5 -5,0 0,-5z M35,100l5,0 0,5 -5,0 0,-5z M40,100l5,0 0,5 -5,0 0,-5z M50,100l5,0 0,5 -5,0 0,-5z M55,100l5,0 0,5 -5,0 0,-5z M60,100l5,0 0,5 -5,0 0,-5z M65,100l5,0 0,5 -5,0 0,-5z M80,100l5,0 0,5 -5,0 0,-5z M85,100l5,0 0,5 -5,0 0,-5z M90,100l5,0 0,5 -5,0 0,-5z M100,100l5,0 0,5 -5,0 0,-5z M105,100l5,0 0,5 -5,0 0,-5z M110,100l5,0 0,5 -5,0 0,-5z M115,100l5,0 0,5 -5,0 0,-5z M120,100l5,0 0,5 -5,0 0,-5z M125,100l5,0 0,5 -5,0 0,-5z M130,100l5,0 0,5 -5,0 0,-5z M40,105l5,0 0,5 -5,0 0,-5z M50,105l5,0 0,5 -5,0 0,-5z M60,105l5,0 0,5 -5,0 0,-5z M65,105l5,0 0,5 -5,0 0,-5z M70,105l5,0 0,5 -5,0 0,-5z M80,105l5,0 0,5 -5,0 0,-5z M85,105l5,0 0,5 -5,0 0,-5z M90,105l5,0 0,5 -5,0 0,-5z M100,105l5,0 0,5 -5,0 0,-5z M120,105l5,0 0,5 -5,0 0,-5z M125,105l5,0 0,5 -5,0 0,-5z M130,105l5,0 0,5 -5,0 0,-5z M135,105l5,0 0,5 -5,0 0,-5z M140,105l5,0 0,5 -5,0 0,-5z M0,110l5,0 0,5 -5,0 0,-5z M5,110l5,0 0,5 -5,0 0,-5z M10,110l5,0 0,5 -5,0 0,-5z M15,110l5,0 0,5 -5,0 0,-5z M20,110l5,0 0,5 -5,0 0,-5z M25,110l5,0 0,5 -5,0 0,-5z M30,110l5,0 0,5 -5,0 0,-5z M45,110l5,0 0,5 -5,0 0,-5z M55,110l5,0 0,5 -5,0 0,-5z M60,110l5,0 0,5 -5,0 0,-5z M65,110l5,0 0,5 -5,0 0,-5z M85,110l5,0 0,5 -5,0 0,-5z M95,110l5,0 0,5 -5,0 0,-5z M100,110l5,0 0,5 -5,0 0,-5z M110,110l5,0 0,5 -5,0 0,-5z M120,110l5,0 0,5 -5,0 0,-5z M125,110l5,0 0,5 -5,0 0,-5z M135,110l5,0 0,5 -5,0 0,-5z M0,115l5,0 0,5 -5,0 0,-5z M30,115l5,0 0,5 -5,0 0,-5z M45,115l5,0 0,5 -5,0 0,-5z M90,115l5,0 0,5 -5,0 0,-5z M100,115l5,0 0,5 -5,0 0,-5z M120,115l5,0 0,5 -5,0 0,-5z M125,115l5,0 0,5 -5,0 0,-5z M135,115l5,0 0,5 -5,0 0,-5z M0,120l5,0 0,5 -5,0 0,-5z M10,120l5,0 0,5 -5,0 0,-5z M15,120l5,0 0,5 -5,0 0,-5z M20,120l5,0 0,5 -5,0 0,-5z M30,120l5,0 0,5 -5,0 0,-5z M45,120l5,0 0,5 -5,0 0,-5z M60,120l5,0 0,5 -5,0 0,-5z M70,120l5,0 0,5 -5,0 0,-5z M75,120l5,0 0,5 -5,0 0,-5z M85,120l5,0 0,5 -5,0 0,-5z M100,120l5,0 0,5 -5,0 0,-5z M105,120l5,0 0,5 -5,0 0,-5z M110,120l5,0 0,5 -5,0 0,-5z M115,120l5,0 0,5 -5,0 0,-5z M120,120l5,0 0,5 -5,0 0,-5z M130,120l5,0 0,5 -5,0 0,-5z M0,125l5,0 0,5 -5,0 0,-5z M10,125l5,0 0,5 -5,0 0,-5z M15,125l5,0 0,5 -5,0 0,-5z M20,125l5,0 0,5 -5,0 0,-5z M30,125l5,0 0,5 -5,0 0,-5z M40,125l5,0 0,5 -5,0 0,-5z M45,125l5,0 0,5 -5,0 0,-5z M50,125l5,0 0,5 -5,0 0,-5z M55,125l5,0 0,5 -5,0 0,-5z M60,125l5,0 0,5 -5,0 0,-5z M70,125l5,0 0,5 -5,0 0,-5z M75,125l5,0 0,5 -5,0 0,-5z M80,125l5,0 0,5 -5,0 0,-5z M95,125l5,0 0,5 -5,0 0,-5z M100,125l5,0 0,5 -5,0 0,-5z M105,125l5,0 0,5 -5,0 0,-5z M115,125l5,0 0,5 -5,0 0,-5z M120,125l5,0 0,5 -5,0 0,-5z M125,125l5,0 0,5 -5,0 0,-5z M140,125l5,0 0,5 -5,0 0,-5z M0,130l5,0 0,5 -5,0 0,-5z M10,130l5,0 0,5 -5,0 0,-5z M15,130l5,0 0,5 -5,0 0,-5z M20,130l5,0 0,5 -5,0 0,-5z M30,130l5,0 0,5 -5,0 0,-5z M40,130l5,0 0,5 -5,0 0,-5z M45,130l5,0 0,5 -5,0 0,-5z M55,130l5,0 0,5 -5,0 0,-5z M65,130l5,0 0,5 -5,0 0,-5z M85,130l5,0 0,5 -5,0 0,-5z M90,130l5,0 0,5 -5,0 0,-5z M95,130l5,0 0,5 -5,0 0,-5z M100,130l5,0 0,5 -5,0 0,-5z M115,130l5,0 0,5 -5,0 0,-5z M130,130l5,0 0,5 -5,0 0,-5z M140,130l5,0 0,5 -5,0 0,-5z M0,135l5,0 0,5 -5,0 0,-5z M30,135l5,0 0,5 -5,0 0,-5z M40,135l5,0 0,5 -5,0 0,-5z M50,135l5,0 0,5 -5,0 0,-5z M55,135l5,0 0,5 -5,0 0,-5z M70,135l5,0 0,5 -5,0 0,-5z M80,135l5,0 0,5 -5,0 0,-5z M100,135l5,0 0,5 -5,0 0,-5z M110,135l5,0 0,5 -5,0 0,-5z M125,135l5,0 0,5 -5,0 0,-5z M135,135l5,0 0,5 -5,0 0,-5z M0,140l5,0 0,5 -5,0 0,-5z M5,140l5,0 0,5 -5,0 0,-5z M10,140l5,0 0,5 -5,0 0,-5z M15,140l5,0 0,5 -5,0 0,-5z M20,140l5,0 0,5 -5,0 0,-5z M25,140l5,0 0,5 -5,0 0,-5z M30,140l5,0 0,5 -5,0 0,-5z M40,140l5,0 0,5 -5,0 0,-5z M50,140l5,0 0,5 -5,0 0,-5z M60,140l5,0 0,5 -5,0 0,-5z M70,140l5,0 0,5 -5,0 0,-5z M75,140l5,0 0,5 -5,0 0,-5z M95,140l5,0 0,5 -5,0 0,-5z M100,140l5,0 0,5 -5,0 0,-5z M115,140l5,0 0,5 -5,0 0,-5z M125,140l5,0 0,5 -5,0 0,-5z M135,140l5,0 0,5 -5,0 0,-5z " stroke="transparent" fill="black"/></g><g transform="translate(0,625)"><text><tspan x="6">&#xa0;</tspan></text></g><g transform="translate(0,649)"><text stroke="#000"><tspan x="114">h</tspan><tspan x="126">t</tspan><tspan x="138">t</tspan><tspan x="150">p</tspan><tspan x="162">s</tspan><tspan x="174">:</tspan><tspan x="186">/</tspan><tspan x="198">/</tspan><tspan x="210">g</tspan><tspan x="222">i</tspan><tspan x="234">t</tspan><tspan x="246">h</tspan><tspan x="258">u</tspan><tspan x="270">b</tspan><tspan x="282">.</tspan><tspan x="294">c</tspan><tspan x="306">o</tspan><tspan x="318">m</tspan></text></g><g transform="translate(0,673)"><text><tspan x="6">&#xa0;</tspan></text></g></g></svg>
