<svg width="456px" height="721px" viewBox="0 0 456 721" preserveAspectRatio="xMinYMin meet" xmlns="http://www.w3.org/2000/svg" xmlns:xlink="http://www.w3.org/1999/xlink" version="1.1"><style type="text/css"><![CDATA[@import url("https://fonts.googleapis.com/css2?family=Kosugi+Maru&display=swap");]]></style><defs><filter id="receiptlineinvert" x="0" y="0" width="100%" height="100%"><feFlood flood-color="#000"/><feComposite in="SourceGraphic" operator="xor"/></filter></defs><g font-family="'Kosugi Maru', 'MS Gothic', 'San Francisco', 'Osaka-Mono', monospace" fill="#000" font-size="24" dominant-baseline="text-after-edge" text-anchor="middle" xml:lang="ja"><g transform="translate(0,24)"><text><tspan x="6">&#xa0;</tspan></text></g><g transform="translate(0,72)"><text transform="scale(2,2)"><tspan x="72">斎</tspan><tspan x="96">藤</tspan><tspan x="114">&#xa0;</tspan><tspan x="132">亮</tspan><tspan x="156">磨</tspan></text></g><g transform="translate(0,96)"><text><tspan x="6">&#xa0;</tspan></text></g><g transform="translate(0,120)"><text><tspan x="108">神</tspan><tspan x="132">奈</tspan><tspan x="156">川</tspan><tspan x="180">工</tspan><tspan x="204">科</tspan><tspan x="228">大</tspan><tspan x="252">学</tspan><tspan x="276">情</tspan><tspan x="300">報</tspan><tspan x="324">学</tspan><tspan x="348">部</tspan></text></g><g transform="translate(0,144)"><text><tspan x="108">情</tspan><tspan x="132">報</tspan><tspan x="156">メ</tspan><tspan x="180">デ</tspan><tspan x="204">ィ</tspan><tspan x="228">ア</tspan><tspan x="252">学</tspan><tspan x="276">科</tspan><tspan x="300">　</tspan><tspan x="324">所</tspan><tspan x="348">属</tspan></text></g><g transform="translate(0,168)"><text><tspan x="6">&#xa0;</tspan></text></g><g transform="translate(0,192)"><text><tspan x="6">&#xa0;</tspan></text></g><g transform="translate(0,216)"><text><tspan x="12">東</tspan><tspan x="36">京</tspan><tspan x="54">ｹ</tspan><tspan x="66">ﾞ</tspan><tspan x="78">ｰ</tspan><tspan x="90">ﾑ</tspan><tspan x="102">ｼ</tspan><tspan x="114">ｮ</tspan><tspan x="126">ｰ</tspan></text><text><tspan x="240">2</tspan><tspan x="252">0</tspan><tspan x="264">2</tspan><tspan x="276">2</tspan><tspan x="294">年</tspan><tspan x="312">0</tspan><tspan x="324">9</tspan><tspan x="342">月</tspan><tspan x="360">1</tspan><tspan x="372">5</tspan><tspan x="390">日</tspan><tspan x="408">(</tspan><tspan x="426">木</tspan><tspan x="444">)</tspan></text></g><g transform="translate(0,216)"><path d="M0,12h456" fill="none" stroke="#000" stroke-width="2"/></g><g transform="translate(0,264)"><text><tspan x="6">&#xa0;</tspan></text></g><g transform="translate(0,288)"><text><tspan x="6">T</tspan><tspan x="18">E</tspan><tspan x="30">L</tspan></text><text><tspan x="282">1</tspan><tspan x="294">2</tspan><tspan x="306">3</tspan><tspan x="318">-</tspan><tspan x="330">1</tspan><tspan x="342">2</tspan><tspan x="354">3</tspan><tspan x="366">4</tspan><tspan x="378">-</tspan><tspan x="390">1</tspan><tspan x="402">2</tspan><tspan x="414">3</tspan><tspan x="426">4</tspan><tspan x="438">&#xa0;</tspan><tspan x="450">&#xa0;</tspan></text></g><g transform="translate(0,312)"><text><tspan x="6">&#xa0;</tspan></text></g><g transform="translate(0,336)"><text><tspan x="6">T</tspan><tspan x="18">w</tspan><tspan x="30">i</tspan><tspan x="42">t</tspan><tspan x="54">t</tspan><tspan x="66">e</tspan><tspan x="78">r</tspan></text><text><tspan x="282">@</tspan><tspan x="294">K</tspan><tspan x="306">a</tspan><tspan x="318">n</tspan><tspan x="330">a</tspan><tspan x="342">g</tspan><tspan x="354">a</tspan><tspan x="366">w</tspan><tspan x="378">a</tspan><tspan x="390">R</tspan><tspan x="402">y</tspan><tspan x="414">o</tspan><tspan x="426">m</tspan><tspan x="438">a</tspan><tspan x="450">&#xa0;</tspan></text></g><g transform="translate(0,360)"><text><tspan x="6">&#xa0;</tspan></text></g><g transform="translate(0,384)"><text><tspan x="6">M</tspan><tspan x="18">a</tspan><tspan x="30">i</tspan><tspan x="42">l</tspan></text><text><tspan x="306">1</tspan><tspan x="318">2</tspan><tspan x="330">@</tspan><tspan x="342">g</tspan><tspan x="354">m</tspan><tspan x="366">a</tspan><tspan x="378">i</tspan><tspan x="390">l</tspan><tspan x="402">.</tspan><tspan x="414">c</tspan><tspan x="426">o</tspan><tspan x="438">m</tspan><tspan x="450">&#xa0;</tspan></text></g><g transform="translate(0,408)"><text><tspan x="6">&#xa0;</tspan></text></g><g transform="translate(0,432)"><text><tspan x="6">G</tspan><tspan x="18">i</tspan><tspan x="30">t</tspan><tspan x="42">h</tspan><tspan x="54">u</tspan><tspan x="66">b</tspan></text><text><tspan x="234">h</tspan><tspan x="246">t</tspan><tspan x="258">t</tspan><tspan x="270">p</tspan><tspan x="282">s</tspan><tspan x="294">:</tspan><tspan x="306">/</tspan><tspan x="318">/</tspan><tspan x="330">g</tspan><tspan x="342">i</tspan><tspan x="354">t</tspan><tspan x="366">h</tspan><tspan x="378">u</tspan><tspan x="390">b</tspan><tspan x="402">.</tspan><tspan x="414">c</tspan><tspan x="426">o</tspan><tspan x="438">m</tspan><tspan x="450">&#xa0;</tspan></text></g><g transform="translate(0,456)"><text><tspan x="6">&#xa0;</tspan></text></g><g transform="translate(0,456)"><path d="M0,12h456" fill="none" stroke="#000" stroke-width="2"/></g><g transform="translate(0,504)"><text><tspan x="6">&#xa0;</tspan></text></g><g transform="translate(0,528)"><text filter="url(#receiptlineinvert)"><tspan x="84">ポ</tspan><tspan x="108">ー</tspan><tspan x="132">ト</tspan><tspan x="156">フ</tspan><tspan x="180">ォ</tspan><tspan x="204">リ</tspan><tspan x="228">オ</tspan><tspan x="252">は</tspan><tspan x="276">こ</tspan><tspan x="300">ち</tspan><tspan x="324">ら</tspan><tspan x="348">か</tspan><tspan x="372">ら</tspan></text></g><g transform="translate(0,552)"><text><tspan x="6">&#xa0;</tspan></text></g><g transform="translate(155.5,552)"><path d="M0,0l5,0 0,5 -5,0 0,-5z M5,0l5,0 0,5 -5,0 0,-5z M10,0l5,0 0,5 -5,0 0,-5z M15,0l5,0 0,5 -5,0 0,-5z M20,0l5,0 0,5 -5,0 0,-5z M25,0l5,0 0,5 -5,0 0,-5z M30,0l5,0 0,5 -5,0 0,-5z M40,0l5,0 0,5 -5,0 0,-5z M50,0l5,0 0,5 -5,0 0,-5z M60,0l5,0 0,5 -5,0 0,-5z M65,0l5,0 0,5 -5,0 0,-5z M70,0l5,0 0,5 -5,0 0,-5z M75,0l5,0 0,5 -5,0 0,-5z M95,0l5,0 0,5 -5,0 0,-5z M100,0l5,0 0,5 -5,0 0,-5z M110,0l5,0 0,5 -5,0 0,-5z M115,0l5,0 0,5 -5,0 0,-5z M120,0l5,0 0,5 -5,0 0,-5z M125,0l5,0 0,5 -5,0 0,-5z M130,0l5,0 0,5 -5,0 0,-5z M135,0l5,0 0,5 -5,0 0,-5z M140,0l5,0 0,5 -5,0 0,-5z M0,5l5,0 0,5 -5,0 0,-5z M30,5l5,0 0,5 -5,0 0,-5z M45,5l5,0 0,5 -5,0 0,-5z M50,5l5,0 0,5 -5,0 0,-5z M55,5l5,0 0,5 -5,0 0,-5z M60,5l5,0 0,5 -5,0 0,-5z M65,5l5,0 0,5 -5,0 0,-5z M80,5l5,0 0,5 -5,0 0,-5z M85,5l5,0 0,5 -5,0 0,-5z M90,5l5,0 0,5 -5,0 0,-5z M110,5l5,0 0,5 -5,0 0,-5z M140,5l5,0 0,5 -5,0 0,-5z M0,10l5,0 0,5 -5,0 0,-5z M10,10l5,0 0,5 -5,0 0,-5z M15,10l5,0 0,5 -5,0 0,-5z M20,10l5,0 0,5 -5,0 0,-5z M30,10l5,0 0,5 -5,0 0,-5z M40,10l5,0 0,5 -5,0 0,-5z M45,10l5,0 0,5 -5,0 0,-5z M50,10l5,0 0,5 -5,0 0,-5z M80,10l5,0 0,5 -5,0 0,-5z M95,10l5,0 0,5 -5,0 0,-5z M110,10l5,0 0,5 -5,0 0,-5z M120,10l5,0 0,5 -5,0 0,-5z M125,10l5,0 0,5 -5,0 0,-5z M130,10l5,0 0,5 -5,0 0,-5z M140,10l5,0 0,5 -5,0 0,-5z M0,15l5,0 0,5 -5,0 0,-5z M10,15l5,0 0,5 -5,0 0,-5z M15,15l5,0 0,5 -5,0 0,-5z M20,15l5,0 0,5 -5,0 0,-5z M30,15l5,0 0,5 -5,0 0,-5z M40,15l5,0 0,5 -5,0 0,-5z M45,15l5,0 0,5 -5,0 0,-5z M50,15l5,0 0,5 -5,0 0,-5z M60,15l5,0 0,5 -5,0 0,-5z M70,15l5,0 0,5 -5,0 0,-5z M75,15l5,0 0,5 -5,0 0,-5z M85,15l5,0 0,5 -5,0 0,-5z M95,15l5,0 0,5 -5,0 0,-5z M110,15l5,0 0,5 -5,0 0,-5z M120,15l5,0 0,5 -5,0 0,-5z M125,15l5,0 0,5 -5,0 0,-5z M130,15l5,0 0,5 -5,0 0,-5z M140,15l5,0 0,5 -5,0 0,-5z M0,20l5,0 0,5 -5,0 0,-5z M10,20l5,0 0,5 -5,0 0,-5z M15,20l5,0 0,5 -5,0 0,-5z M20,20l5,0 0,5 -5,0 0,-5z M30,20l5,0 0,5 -5,0 0,-5z M40,20l5,0 0,5 -5,0 0,-5z M55,20l5,0 0,5 -5,0 0,-5z M60,20l5,0 0,5 -5,0 0,-5z M70,20l5,0 0,5 -5,0 0,-5z M80,20l5,0 0,5 -5,0 0,-5z M95,20l5,0 0,5 -5,0 0,-5z M110,20l5,0 0,5 -5,0 0,-5z M120,20l5,0 0,5 -5,0 0,-5z M125,20l5,0 0,5 -5,0 0,-5z M130,20l5,0 0,5 -5,0 0,-5z M140,20l5,0 0,5 -5,0 0,-5z M0,25l5,0 0,5 -5,0 0,-5z M30,25l5,0 0,5 -5,0 0,-5z M50,25l5,0 0,5 -5,0 0,-5z M55,25l5,0 0,5 -5,0 0,-5z M65,25l5,0 0,5 -5,0 0,-5z M75,25l5,0 0,5 -5,0 0,-5z M80,25l5,0 0,5 -5,0 0,-5z M85,25l5,0 0,5 -5,0 0,-5z M90,25l5,0 0,5 -5,0 0,-5z M95,25l5,0 0,5 -5,0 0,-5z M100,25l5,0 0,5 -5,0 0,-5z M110,25l5,0 0,5 -5,0 0,-5z M140,25l5,0 0,5 -5,0 0,-5z M0,30l5,0 0,5 -5,0 0,-5z M5,30l5,0 0,5 -5,0 0,-5z M10,30l5,0 0,5 -5,0 0,-5z M15,30l5,0 0,5 -5,0 0,-5z M20,30l5,0 0,5 -5,0 0,-5z M25,30l5,0 0,5 -5,0 0,-5z M30,30l5,0 0,5 -5,0 0,-5z M40,30l5,0 0,5 -5,0 0,-5z M50,30l5,0 0,5 -5,0 0,-5z M60,30l5,0 0,5 -5,0 0,-5z M70,30l5,0 0,5 -5,0 0,-5z M80,30l5,0 0,5 -5,0 0,-5z M90,30l5,0 0,5 -5,0 0,-5z M100,30l5,0 0,5 -5,0 0,-5z M110,30l5,0 0,5 -5,0 0,-5z M115,30l5,0 0,5 -5,0 0,-5z M120,30l5,0 0,5 -5,0 0,-5z M125,30l5,0 0,5 -5,0 0,-5z M130,30l5,0 0,5 -5,0 0,-5z M135,30l5,0 0,5 -5,0 0,-5z M140,30l5,0 0,5 -5,0 0,-5z M50,35l5,0 0,5 -5,0 0,-5z M60,35l5,0 0,5 -5,0 0,-5z M75,35l5,0 0,5 -5,0 0,-5z M80,35l5,0 0,5 -5,0 0,-5z M85,35l5,0 0,5 -5,0 0,-5z M90,35l5,0 0,5 -5,0 0,-5z M100,35l5,0 0,5 -5,0 0,-5z M0,40l5,0 0,5 -5,0 0,-5z M5,40l5,0 0,5 -5,0 0,-5z M10,40l5,0 0,5 -5,0 0,-5z M15,40l5,0 0,5 -5,0 0,-5z M30,40l5,0 0,5 -5,0 0,-5z M40,40l5,0 0,5 -5,0 0,-5z M50,40l5,0 0,5 -5,0 0,-5z M55,40l5,0 0,5 -5,0 0,-5z M60,40l5,0 0,5 -5,0 0,-5z M65,40l5,0 0,5 -5,0 0,-5z M75,40l5,0 0,5 -5,0 0,-5z M80,40l5,0 0,5 -5,0 0,-5z M85,40l5,0 0,5 -5,0 0,-5z M90,40l5,0 0,5 -5,0 0,-5z M95,40l5,0 0,5 -5,0 0,-5z M105,40l5,0 0,5 -5,0 0,-5z M120,40l5,0 0,5 -5,0 0,-5z M125,40l5,0 0,5 -5,0 0,-5z M130,40l5,0 0,5 -5,0 0,-5z M140,40l5,0 0,5 -5,0 0,-5z M5,45l5,0 0,5 -5,0 0,-5z M10,45l5,0 0,5 -5,0 0,-5z M15,45l5,0 0,5 -5,0 0,-5z M50,45l5,0 0,5 -5,0 0,-5z M60,45l5,0 0,5 -5,0 0,-5z M65,45l5,0 0,5 -5,0 0,-5z M70,45l5,0 0,5 -5,0 0,-5z M75,45l5,0 0,5 -5,0 0,-5z M90,45l5,0 0,5 -5,0 0,-5z M95,45l5,0 0,5 -5,0 0,-5z M100,45l5,0 0,5 -5,0 0,-5z M110,45l5,0 0,5 -5,0 0,-5z M115,45l5,0 0,5 -5,0 0,-5z M120,45l5,0 0,5 -5,0 0,-5z M140,45l5,0 0,5 -5,0 0,-5z M0,50l5,0 0,5 -5,0 0,-5z M10,50l5,0 0,5 -5,0 0,-5z M15,50l5,0 0,5 -5,0 0,-5z M20,50l5,0 0,5 -5,0 0,-5z M25,50l5,0 0,5 -5,0 0,-5z M30,50l5,0 0,5 -5,0 0,-5z M45,50l5,0 0,5 -5,0 0,-5z M50,50l5,0 0,5 -5,0 0,-5z M55,50l5,0 0,5 -5,0 0,-5z M60,50l5,0 0,5 -5,0 0,-5z M65,50l5,0 0,5 -5,0 0,-5z M105,50l5,0 0,5 -5,0 0,-5z M115,50l5,0 0,5 -5,0 0,-5z M130,50l5,0 0,5 -5,0 0,-5z M135,50l5,0 0,5 -5,0 0,-5z M0,55l5,0 0,5 -5,0 0,-5z M20,55l5,0 0,5 -5,0 0,-5z M25,55l5,0 0,5 -5,0 0,-5z M35,55l5,0 0,5 -5,0 0,-5z M40,55l5,0 0,5 -5,0 0,-5z M45,55l5,0 0,5 -5,0 0,-5z M50,55l5,0 0,5 -5,0 0,-5z M80,55l5,0 0,5 -5,0 0,-5z M90,55l5,0 0,5 -5,0 0,-5z M105,55l5,0 0,5 -5,0 0,-5z M110,55l5,0 0,5 -5,0 0,-5z M120,55l5,0 0,5 -5,0 0,-5z M140,55l5,0 0,5 -5,0 0,-5z M0,60l5,0 0,5 -5,0 0,-5z M5,60l5,0 0,5 -5,0 0,-5z M15,60l5,0 0,5 -5,0 0,-5z M30,60l5,0 0,5 -5,0 0,-5z M35,60l5,0 0,5 -5,0 0,-5z M45,60l5,0 0,5 -5,0 0,-5z M50,60l5,0 0,5 -5,0 0,-5z M60,60l5,0 0,5 -5,0 0,-5z M70,60l5,0 0,5 -5,0 0,-5z M75,60l5,0 0,5 -5,0 0,-5z M80,60l5,0 0,5 -5,0 0,-5z M85,60l5,0 0,5 -5,0 0,-5z M100,60l5,0 0,5 -5,0 0,-5z M125,60l5,0 0,5 -5,0 0,-5z M130,60l5,0 0,5 -5,0 0,-5z M5,65l5,0 0,5 -5,0 0,-5z M10,65l5,0 0,5 -5,0 0,-5z M15,65l5,0 0,5 -5,0 0,-5z M40,65l5,0 0,5 -5,0 0,-5z M45,65l5,0 0,5 -5,0 0,-5z M55,65l5,0 0,5 -5,0 0,-5z M60,65l5,0 0,5 -5,0 0,-5z M70,65l5,0 0,5 -5,0 0,-5z M75,65l5,0 0,5 -5,0 0,-5z M85,65l5,0 0,5 -5,0 0,-5z M95,65l5,0 0,5 -5,0 0,-5z M110,65l5,0 0,5 -5,0 0,-5z M130,65l5,0 0,5 -5,0 0,-5z M135,65l5,0 0,5 -5,0 0,-5z M140,65l5,0 0,5 -5,0 0,-5z M0,70l5,0 0,5 -5,0 0,-5z M10,70l5,0 0,5 -5,0 0,-5z M15,70l5,0 0,5 -5,0 0,-5z M20,70l5,0 0,5 -5,0 0,-5z M25,70l5,0 0,5 -5,0 0,-5z M30,70l5,0 0,5 -5,0 0,-5z M40,70l5,0 0,5 -5,0 0,-5z M45,70l5,0 0,5 -5,0 0,-5z M55,70l5,0 0,5 -5,0 0,-5z M65,70l5,0 0,5 -5,0 0,-5z M80,70l5,0 0,5 -5,0 0,-5z M95,70l5,0 0,5 -5,0 0,-5z M100,70l5,0 0,5 -5,0 0,-5z M110,70l5,0 0,5 -5,0 0,-5z M130,70l5,0 0,5 -5,0 0,-5z M135,70l5,0 0,5 -5,0 0,-5z M140,70l5,0 0,5 -5,0 0,-5z M0,75l5,0 0,5 -5,0 0,-5z M35,75l5,0 0,5 -5,0 0,-5z M40,75l5,0 0,5 -5,0 0,-5z M50,75l5,0 0,5 -5,0 0,-5z M55,75l5,0 0,5 -5,0 0,-5z M70,75l5,0 0,5 -5,0 0,-5z M75,75l5,0 0,5 -5,0 0,-5z M95,75l5,0 0,5 -5,0 0,-5z M100,75l5,0 0,5 -5,0 0,-5z M105,75l5,0 0,5 -5,0 0,-5z M110,75l5,0 0,5 -5,0 0,-5z M115,75l5,0 0,5 -5,0 0,-5z M120,75l5,0 0,5 -5,0 0,-5z M135,75l5,0 0,5 -5,0 0,-5z M0,80l5,0 0,5 -5,0 0,-5z M10,80l5,0 0,5 -5,0 0,-5z M20,80l5,0 0,5 -5,0 0,-5z M30,80l5,0 0,5 -5,0 0,-5z M60,80l5,0 0,5 -5,0 0,-5z M70,80l5,0 0,5 -5,0 0,-5z M80,80l5,0 0,5 -5,0 0,-5z M90,80l5,0 0,5 -5,0 0,-5z M95,80l5,0 0,5 -5,0 0,-5z M100,80l5,0 0,5 -5,0 0,-5z M120,80l5,0 0,5 -5,0 0,-5z M125,80l5,0 0,5 -5,0 0,-5z M135,80l5,0 0,5 -5,0 0,-5z M5,85l5,0 0,5 -5,0 0,-5z M10,85l5,0 0,5 -5,0 0,-5z M15,85l5,0 0,5 -5,0 0,-5z M25,85l5,0 0,5 -5,0 0,-5z M35,85l5,0 0,5 -5,0 0,-5z M70,85l5,0 0,5 -5,0 0,-5z M75,85l5,0 0,5 -5,0 0,-5z M80,85l5,0 0,5 -5,0 0,-5z M90,85l5,0 0,5 -5,0 0,-5z M115,85l5,0 0,5 -5,0 0,-5z M125,85l5,0 0,5 -5,0 0,-5z M130,85l5,0 0,5 -5,0 0,-5z M135,85l5,0 0,5 -5,0 0,-5z M0,90l5,0 0,5 -5,0 0,-5z M10,90l5,0 0,5 -5,0 0,-5z M30,90l5,0 0,5 -5,0 0,-5z M65,90l5,0 0,5 -5,0 0,-5z M70,90l5,0 0,5 -5,0 0,-5z M75,90l5,0 0,5 -5,0 0,-5z M80,90l5,0 0,5 -5,0 0,-5z M85,90l5,0 0,5 -5,0 0,-5z M90,90l5,0 0,5 -5,0 0,-5z M100,90l5,0 0,5 -5,0 0,-5z M110,90l5,0 0,5 -5,0 0,-5z M115,90l5,0 0,5 -5,0 0,-5z M120,90l5,0 0,5 -5,0 0,-5z M130,90l5,0 0,5 -5,0 0,-5z M20,95l5,0 0,5 -5,0 0,-5z M25,95l5,0 0,5 -5,0 0,-5z M40,95l5,0 0,5 -5,0 0,-5z M45,95l5,0 0,5 -5,0 0,-5z M55,95l5,0 0,5 -5,0 0,-5z M65,95l5,0 0,5 -5,0 0,-5z M70,95l5,0 0,5 -5,0 0,-5z M85,95l5,0 0,5 -5,0 0,-5z M90,95l5,0 0,5 -5,0 0,-5z M110,95l5,0 0,5 -5,0 0,-5z M115,95l5,0 0,5 -5,0 0,-5z M120,95l5,0 0,5 -5,0 0,-5z M130,95l5,0 0,5 -5,0 0,-5z M5,100l5,0 0,5 -5,0 0,-5z M15,100l5,0 0,5 -5,0 0,-5z M20,100l5,0 0,5 -5,0 0,-5z M25,100l5,0 0,5 -5,0 0,-5z M30,100l5,0 0,5 -5,0 0,-5z M40,100l5,0 0,5 -5,0 0,-5z M45,100l5,0 0,5 -5,0 0,-5z M50,100l5,0 0,5 -5,0 0,-5z M65,100l5,0 0,5 -5,0 0,-5z M70,100l5,0 0,5 -5,0 0,-5z M75,100l5,0 0,5 -5,0 0,-5z M85,100l5,0 0,5 -5,0 0,-5z M90,100l5,0 0,5 -5,0 0,-5z M100,100l5,0 0,5 -5,0 0,-5z M105,100l5,0 0,5 -5,0 0,-5z M110,100l5,0 0,5 -5,0 0,-5z M115,100l5,0 0,5 -5,0 0,-5z M120,100l5,0 0,5 -5,0 0,-5z M125,100l5,0 0,5 -5,0 0,-5z M130,100l5,0 0,5 -5,0 0,-5z M40,105l5,0 0,5 -5,0 0,-5z M100,105l5,0 0,5 -5,0 0,-5z M120,105l5,0 0,5 -5,0 0,-5z M125,105l5,0 0,5 -5,0 0,-5z M130,105l5,0 0,5 -5,0 0,-5z M135,105l5,0 0,5 -5,0 0,-5z M140,105l5,0 0,5 -5,0 0,-5z M0,110l5,0 0,5 -5,0 0,-5z M5,110l5,0 0,5 -5,0 0,-5z M10,110l5,0 0,5 -5,0 0,-5z M15,110l5,0 0,5 -5,0 0,-5z M20,110l5,0 0,5 -5,0 0,-5z M25,110l5,0 0,5 -5,0 0,-5z M30,110l5,0 0,5 -5,0 0,-5z M50,110l5,0 0,5 -5,0 0,-5z M70,110l5,0 0,5 -5,0 0,-5z M80,110l5,0 0,5 -5,0 0,-5z M85,110l5,0 0,5 -5,0 0,-5z M90,110l5,0 0,5 -5,0 0,-5z M95,110l5,0 0,5 -5,0 0,-5z M100,110l5,0 0,5 -5,0 0,-5z M110,110l5,0 0,5 -5,0 0,-5z M120,110l5,0 0,5 -5,0 0,-5z M125,110l5,0 0,5 -5,0 0,-5z M135,110l5,0 0,5 -5,0 0,-5z M0,115l5,0 0,5 -5,0 0,-5z M30,115l5,0 0,5 -5,0 0,-5z M45,115l5,0 0,5 -5,0 0,-5z M55,115l5,0 0,5 -5,0 0,-5z M60,115l5,0 0,5 -5,0 0,-5z M65,115l5,0 0,5 -5,0 0,-5z M70,115l5,0 0,5 -5,0 0,-5z M80,115l5,0 0,5 -5,0 0,-5z M100,115l5,0 0,5 -5,0 0,-5z M120,115l5,0 0,5 -5,0 0,-5z M125,115l5,0 0,5 -5,0 0,-5z M0,120l5,0 0,5 -5,0 0,-5z M10,120l5,0 0,5 -5,0 0,-5z M15,120l5,0 0,5 -5,0 0,-5z M20,120l5,0 0,5 -5,0 0,-5z M30,120l5,0 0,5 -5,0 0,-5z M50,120l5,0 0,5 -5,0 0,-5z M55,120l5,0 0,5 -5,0 0,-5z M75,120l5,0 0,5 -5,0 0,-5z M80,120l5,0 0,5 -5,0 0,-5z M85,120l5,0 0,5 -5,0 0,-5z M100,120l5,0 0,5 -5,0 0,-5z M105,120l5,0 0,5 -5,0 0,-5z M110,120l5,0 0,5 -5,0 0,-5z M115,120l5,0 0,5 -5,0 0,-5z M120,120l5,0 0,5 -5,0 0,-5z M130,120l5,0 0,5 -5,0 0,-5z M135,120l5,0 0,5 -5,0 0,-5z M0,125l5,0 0,5 -5,0 0,-5z M10,125l5,0 0,5 -5,0 0,-5z M15,125l5,0 0,5 -5,0 0,-5z M20,125l5,0 0,5 -5,0 0,-5z M30,125l5,0 0,5 -5,0 0,-5z M40,125l5,0 0,5 -5,0 0,-5z M55,125l5,0 0,5 -5,0 0,-5z M65,125l5,0 0,5 -5,0 0,-5z M75,125l5,0 0,5 -5,0 0,-5z M85,125l5,0 0,5 -5,0 0,-5z M95,125l5,0 0,5 -5,0 0,-5z M105,125l5,0 0,5 -5,0 0,-5z M115,125l5,0 0,5 -5,0 0,-5z M120,125l5,0 0,5 -5,0 0,-5z M125,125l5,0 0,5 -5,0 0,-5z M140,125l5,0 0,5 -5,0 0,-5z M0,130l5,0 0,5 -5,0 0,-5z M10,130l5,0 0,5 -5,0 0,-5z M15,130l5,0 0,5 -5,0 0,-5z M20,130l5,0 0,5 -5,0 0,-5z M30,130l5,0 0,5 -5,0 0,-5z M40,130l5,0 0,5 -5,0 0,-5z M50,130l5,0 0,5 -5,0 0,-5z M60,130l5,0 0,5 -5,0 0,-5z M70,130l5,0 0,5 -5,0 0,-5z M80,130l5,0 0,5 -5,0 0,-5z M90,130l5,0 0,5 -5,0 0,-5z M100,130l5,0 0,5 -5,0 0,-5z M115,130l5,0 0,5 -5,0 0,-5z M130,130l5,0 0,5 -5,0 0,-5z M140,130l5,0 0,5 -5,0 0,-5z M0,135l5,0 0,5 -5,0 0,-5z M30,135l5,0 0,5 -5,0 0,-5z M40,135l5,0 0,5 -5,0 0,-5z M45,135l5,0 0,5 -5,0 0,-5z M60,135l5,0 0,5 -5,0 0,-5z M65,135l5,0 0,5 -5,0 0,-5z M75,135l5,0 0,5 -5,0 0,-5z M80,135l5,0 0,5 -5,0 0,-5z M100,135l5,0 0,5 -5,0 0,-5z M105,135l5,0 0,5 -5,0 0,-5z M115,135l5,0 0,5 -5,0 0,-5z M125,135l5,0 0,5 -5,0 0,-5z M135,135l5,0 0,5 -5,0 0,-5z M0,140l5,0 0,5 -5,0 0,-5z M5,140l5,0 0,5 -5,0 0,-5z M10,140l5,0 0,5 -5,0 0,-5z M15,140l5,0 0,5 -5,0 0,-5z M20,140l5,0 0,5 -5,0 0,-5z M25,140l5,0 0,5 -5,0 0,-5z M30,140l5,0 0,5 -5,0 0,-5z M40,140l5,0 0,5 -5,0 0,-5z M45,140l5,0 0,5 -5,0 0,-5z M50,140l5,0 0,5 -5,0 0,-5z M55,140l5,0 0,5 -5,0 0,-5z M75,140l5,0 0,5 -5,0 0,-5z M90,140l5,0 0,5 -5,0 0,-5z M95,140l5,0 0,5 -5,0 0,-5z M100,140l5,0 0,5 -5,0 0,-5z M105,140l5,0 0,5 -5,0 0,-5z M110,140l5,0 0,5 -5,0 0,-5z M135,140l5,0 0,5 -5,0 0,-5z " stroke="transparent" fill="black"/></g><g transform="translate(0,721)"><text><tspan x="6">&#xa0;</tspan></text></g></g></svg>
